<svg width="123" height="28" viewBox="0 0 123 28" fill="none" xmlns="http://www.w3.org/2000/svg">
<g clip-path="url(#clip0_1_6807)">
<path d="M55.3901 7.58962L51.1643 13.6716C50.8589 14.1093 50.7509 14.6227 50.8454 14.928C51.0832 15.6873 51.4344 16.5438 51.4344 16.5438C51.4344 16.5438 52.3585 16.5762 53.1529 16.533C53.4744 16.5168 53.9148 16.2358 54.2201 15.7981L59.9266 7.58691H55.3901V7.58962Z" fill="#FAFAFF"/>
<path d="M44.6417 7.58984L48.8702 13.6719C49.1756 14.1096 49.2836 14.6229 49.1891 14.9283C48.954 15.6875 48.6 16.544 48.6 16.544C48.6 16.544 47.676 16.5764 46.8816 16.5332C46.5601 16.517 46.1197 16.236 45.8144 15.7983L40.1079 7.58984H44.6444H44.6417Z" fill="#FAFAFF"/>
<path d="M35.0554 4.47978C33.3424 1.46714 30.4 0 26.0634 0C22.2186 0 19.5058 1.10509 17.7523 3.3801C16.0231 5.6227 14.9099 9.09737 14.9099 13.9986C14.9099 18.8999 16.0339 22.3746 17.7577 24.6172C19.5058 26.8922 22.2186 28 26.0634 28C29.9082 28 32.6885 26.8463 34.4475 24.4578C36.101 22.2179 37.1521 18.8945 37.1521 13.9959C37.1521 11.0509 36.6657 7.30869 35.0554 4.47708M26.0607 3.45035C30.7404 3.45035 33.4153 5.24713 33.4153 13.9932C33.4153 22.7394 30.7458 24.4821 26.0607 24.4821C21.3756 24.4821 18.6358 22.7394 18.6358 13.9932C18.6358 5.24713 21.335 3.45035 26.0607 3.45035ZM0.573486 5.3417L3.06736 8.08144L3.35917 7.87069C3.65368 7.67075 5.49098 6.26846 6.5042 5.50111V27.5785H10.2274V0.510663H7.01757L0.573486 5.3417Z" fill="#FAFAFF"/>
<path d="M55.8117 27.5597L51.1725 20.8724C50.8698 20.4347 50.7591 19.9214 50.8536 19.616C51.0914 18.8568 51.4427 18.003 51.4427 18.003C51.4427 18.003 52.3667 17.9706 53.1611 18.0111C53.4826 18.03 53.923 18.3083 54.2283 18.746L60.3509 27.5597H55.809H55.8117Z" fill="#FAFAFF"/>
<path d="M44.1906 27.5975L48.8703 20.8724C49.1756 20.4347 49.2837 19.9214 49.1891 19.616C48.9513 18.8568 48.6001 18.003 48.6001 18.003C48.6001 18.003 47.676 17.9706 46.8817 18.0111C46.5601 18.03 46.1197 18.3083 45.8144 18.746L39.6567 27.6002H44.1933L44.1906 27.5975Z" fill="#FAFAFF"/>
<path d="M73.2093 17.695H76.3382V16.5764H73.2093V14.7121H76.8704V13.5854H71.9746V20.8806H76.9001V19.7539H73.2093V17.6923V17.695ZM83.6739 18.6515L80.4397 13.5881H79.2751V20.8833H80.4613V15.7713L83.7144 20.8833H84.8708V13.5881H83.6739V18.6515ZM90.2747 13.4692C88.8588 13.4692 87.4241 14.3906 87.4241 16.1522V18.4948C87.4241 20.2321 88.8724 21.013 90.3044 21.013C91.7364 21.013 93.1441 20.0862 93.1441 18.3192V16.0712C93.1441 14.5446 91.9661 13.4719 90.2747 13.4719V13.4692ZM88.6589 16.1225C88.6589 15.0688 89.4614 14.5959 90.2557 14.5959C91.2663 14.5959 91.9201 15.1579 91.9201 16.0334V18.3759C91.9201 19.4108 91.1096 19.8755 90.3044 19.8755C89.3209 19.8755 88.6589 19.2892 88.6589 18.4165V16.1252V16.1225ZM99.0883 17.7653L97.0997 13.5989H95.6974V20.886H96.8944V15.9901L98.602 19.5405H99.5395L101.236 15.9955V20.8887H102.441V13.6016H101.028L99.0883 17.768V17.7653ZM112.152 13.4692C110.474 13.4692 109.302 14.5608 109.302 16.1225V18.4948C109.302 19.9998 110.458 21.013 112.182 21.013C113.776 21.013 114.851 20.0835 114.851 18.7029V18.3219H113.665V18.584C113.665 19.3675 113.084 19.8755 112.187 19.8755C111.204 19.8755 110.542 19.2892 110.542 18.4165V16.0955C110.542 15.0607 111.344 14.5986 112.136 14.5986C112.838 14.5986 113.662 14.9364 113.662 15.8902V16.2225H114.841V15.7821C114.841 14.423 113.735 13.4719 112.149 13.4719L112.152 13.4692ZM120.442 16.7791L119.153 16.4251C118.237 16.1685 118.131 15.7659 118.131 15.4822C118.131 14.7986 118.785 14.5554 119.342 14.5554C120.055 14.5554 120.552 14.8364 120.825 15.3849L120.879 15.4984L121.955 15.0688L121.909 14.9445C121.571 14.0069 120.644 13.4692 119.361 13.4692C117.921 13.4692 116.913 14.3284 116.913 15.5632C116.913 16.5954 117.434 17.2033 118.599 17.5302L119.874 17.8734C120.547 18.0733 120.82 18.3651 120.82 18.8731C120.82 19.6242 120.044 19.889 119.382 19.889C118.539 19.889 117.904 19.4864 117.651 18.7866L117.605 18.6569L116.481 19.0784L116.516 19.2C116.848 20.324 117.904 20.9995 119.342 20.9995C120.928 20.9995 122.036 20.0889 122.036 18.7866C122.047 17.7329 121.506 17.0547 120.442 16.7764V16.7791ZM105.513 13.5962H106.748V20.8833H105.513V13.5962ZM66.1735 18.1463H68.0622V18.5894C68.0622 19.5351 67.2543 19.8701 66.5653 19.8701C65.5818 19.8701 64.9198 19.2838 64.9198 18.4111V16.0901C64.9198 15.0553 65.7223 14.5932 66.5167 14.5932C67.2543 14.5932 68.0433 14.9175 68.0433 15.8253V16.1495H69.2321V15.7172C69.2321 14.1636 67.873 13.4692 66.5275 13.4692C64.855 13.4692 63.6851 14.5608 63.6851 16.1225V18.4948C63.6851 19.9998 64.8442 21.013 66.5653 21.013C68.1702 21.013 69.2483 20.0835 69.2483 18.7029V17.0088H66.1735V18.149V18.1463Z" fill="#FAFAFF"/>
</g>
<defs>
<clipPath id="clip0_1_6807">
<rect width="121.465" height="28" fill="white" transform="translate(0.573486)"/>
</clipPath>
</defs>
</svg>
