<svg width="132" height="28" viewBox="0 0 132 28" fill="none" xmlns="http://www.w3.org/2000/svg">
<g clip-path="url(#clip0_1_6814)">
<path d="M131.124 12.6674V10.362H128.262V6.77809L128.165 6.80776L125.476 7.63048L125.423 7.64659V10.3622H121.179V8.84935C121.179 8.14494 121.337 7.60588 121.647 7.24639C121.955 6.8912 122.396 6.71063 122.959 6.71063C123.363 6.71063 123.781 6.80586 124.203 6.99366L124.308 7.04083V4.61299L124.259 4.59473C123.866 4.45346 123.331 4.38232 122.669 4.38232C121.834 4.38232 121.075 4.56404 120.413 4.92417C119.751 5.28481 119.23 5.79965 118.866 6.45422C118.502 7.10804 118.317 7.86317 118.317 8.69883V10.362H116.324V12.6674H118.317V22.3794H121.179V12.6674H125.423V18.8392C125.423 21.381 126.622 22.6691 128.987 22.6691C129.375 22.6691 129.784 22.6236 130.202 22.5345C130.627 22.4429 130.916 22.3515 131.087 22.2539L131.124 22.2315V19.9049L131.008 19.9819C130.853 20.0853 130.659 20.1699 130.433 20.2328C130.205 20.2968 130.015 20.3289 129.867 20.3289C129.313 20.3289 128.904 20.1797 128.649 19.8851C128.392 19.5879 128.262 19.0681 128.262 18.341V12.6674H131.124ZM109.934 20.3293C108.895 20.3293 108.076 19.9849 107.499 19.3065C106.918 18.6246 106.624 17.6525 106.624 16.4174C106.624 15.1432 106.918 14.1458 107.499 13.4519C108.077 12.7626 108.888 12.4128 109.91 12.4128C110.902 12.4128 111.692 12.7469 112.258 13.4064C112.827 14.0694 113.115 15.0587 113.115 16.3478C113.115 17.6528 112.844 18.6552 112.309 19.3258C111.777 19.9912 110.978 20.3293 109.934 20.3293ZM110.061 10.0725C108.079 10.0725 106.505 10.6532 105.383 11.7984C104.261 12.9437 103.693 14.5287 103.693 16.5096C103.693 18.3912 104.248 19.9046 105.343 21.0072C106.438 22.1102 107.928 22.6689 109.771 22.6689C111.692 22.6689 113.234 22.0801 114.356 20.9191C115.478 19.7593 116.046 18.1893 116.046 16.2546C116.046 14.3436 115.513 12.8189 114.461 11.7237C113.408 10.6279 111.927 10.0725 110.061 10.0725ZM99.079 10.0725C97.731 10.0725 96.616 10.4173 95.7643 11.0971C94.9073 11.781 94.4726 12.6779 94.4726 13.7632C94.4726 14.3274 94.5664 14.8286 94.7511 15.2536C94.9368 15.6801 95.2243 16.0555 95.6063 16.3707C95.9853 16.6832 96.5704 17.0106 97.3457 17.3438C97.9975 17.612 98.4835 17.8388 98.7923 18.0176C99.0941 18.1929 99.3083 18.369 99.4292 18.5406C99.5468 18.7085 99.6064 18.9382 99.6064 19.2218C99.6064 20.0292 99.0018 20.422 97.7577 20.422C97.2962 20.422 96.7698 20.3256 96.1932 20.1357C95.6207 19.9486 95.0804 19.6746 94.5912 19.3233L94.4723 19.2381V21.9933L94.516 22.0136C94.9209 22.2005 95.4314 22.3581 96.0331 22.4821C96.6336 22.6063 97.1793 22.6694 97.6533 22.6694C99.116 22.6694 100.294 22.323 101.153 21.6391C102.018 20.9505 102.457 20.0325 102.457 18.9096C102.457 18.0995 102.221 17.4049 101.756 16.8447C101.294 16.289 100.492 15.7788 99.3736 15.3279C98.4826 14.9703 97.9119 14.6735 97.6764 14.4456C97.4494 14.2255 97.3341 13.9141 97.3341 13.5199C97.3341 13.1704 97.4764 12.8904 97.7684 12.6637C98.0628 12.4358 98.4725 12.3199 98.9863 12.3199C99.4631 12.3199 99.9509 12.3953 100.436 12.5429C100.921 12.6905 101.347 12.8882 101.702 13.13L101.819 13.2099V10.5964L101.774 10.5771C101.446 10.4365 101.014 10.3161 100.489 10.2185C99.9657 10.1215 99.4915 10.0725 99.079 10.0725ZM87.0124 20.3293C85.974 20.3293 85.1548 19.9849 84.5779 19.3065C83.9971 18.6246 83.7034 17.6528 83.7034 16.4174C83.7034 15.1432 83.9975 14.1458 84.5785 13.4519C85.1555 12.7626 85.9664 12.4128 86.9895 12.4128C87.9814 12.4128 88.7712 12.7469 89.3372 13.4064C89.9059 14.0694 90.1944 15.0587 90.1944 16.3478C90.1944 17.6528 89.9229 18.6552 89.3878 19.3258C88.8563 19.9912 88.0576 20.3293 87.0124 20.3293ZM87.14 10.0725C85.1579 10.0725 83.5838 10.6532 82.4622 11.7984C81.3407 12.9437 80.7717 14.5287 80.7717 16.5096C80.7717 18.392 81.3272 19.9046 82.422 21.0072C83.5169 22.1102 85.0067 22.6689 86.8501 22.6689C88.7707 22.6689 90.3137 22.0801 91.4354 20.9191C92.5568 19.7593 93.1253 18.1893 93.1253 16.2546C93.1253 14.3436 92.5919 12.8189 91.5396 11.7237C90.4867 10.6279 89.0063 10.0725 87.14 10.0725ZM76.4278 12.4432V10.362H73.6011V22.3791H76.4278V16.2319C76.4278 15.1867 76.6649 14.3279 77.1325 13.6793C77.5942 13.0384 78.2095 12.7137 78.9607 12.7137C79.2153 12.7137 79.5011 12.7556 79.8107 12.8387C80.117 12.9212 80.339 13.0109 80.4698 13.1052L80.5886 13.1913V10.3415L80.5429 10.3218C80.2796 10.21 79.9072 10.1536 79.436 10.1536C78.7256 10.1536 78.0899 10.3818 77.5454 10.8312C77.0675 11.2262 76.722 11.7678 76.4579 12.4432H76.4278ZM68.5388 10.0725C67.242 10.0725 66.0852 10.3506 65.1013 10.8988C64.1154 11.4483 63.3529 12.2327 62.8342 13.2302C62.3177 14.2252 62.0554 15.3875 62.0554 16.6837C62.0554 17.8192 62.3097 18.8611 62.8122 19.7795C63.315 20.6993 64.0266 21.419 64.9275 21.9181C65.827 22.4165 66.8667 22.6693 68.0179 22.6693C69.3613 22.6693 70.5083 22.4007 71.4279 21.871L71.465 21.8497V19.2599L71.3462 19.3467C70.9296 19.6501 70.4641 19.8923 69.9632 20.0668C69.4636 20.2412 69.0081 20.3293 68.6087 20.3293C67.4995 20.3293 66.6091 19.9822 65.9627 19.298C65.315 18.6129 64.9866 17.6508 64.9866 16.4401C64.9866 15.2219 65.3291 14.2351 66.0041 13.507C66.677 12.781 67.5691 12.4128 68.6553 12.4128C69.5845 12.4128 70.4899 12.7274 71.3464 13.3487L71.465 13.4348V10.7061L71.4267 10.6845C71.1044 10.5041 70.6647 10.3551 70.1189 10.2421C69.5755 10.1293 69.0439 10.0725 68.5388 10.0725ZM60.1086 10.3622H57.2818V22.3791H60.1086V10.3622ZM58.7241 5.24284C58.2588 5.24284 57.853 5.40122 57.5197 5.71507C57.1849 6.0298 57.0151 6.42607 57.0151 6.89374C57.0151 7.35404 57.1829 7.74309 57.5145 8.04945C57.8439 8.35493 58.251 8.50976 58.7242 8.50976C59.1973 8.50976 59.6059 8.35493 59.9393 8.04996C60.2748 7.74309 60.445 7.35417 60.445 6.89374C60.445 6.44243 60.2794 6.05022 59.9531 5.72775C59.6271 5.40591 59.2134 5.24284 58.7241 5.24284ZM51.6711 9.47552V22.3791H54.5559V5.6107H50.5632L45.4881 18.0658L40.5631 5.6107H36.4077V22.379H39.1187V9.47426H39.2118L44.4125 22.3791H46.4584L51.578 9.47552H51.6711Z" fill="#FAFAFF"/>
<path d="M13.3363 13.3053H0.0383301V0.00732422H13.3363V13.3053Z" fill="#FAFAFF"/>
<path d="M28.0187 13.3053H14.7209V0.00732422H28.0187V13.3053Z" fill="#FAFAFF"/>
<path d="M13.3359 27.9927H0.0383301V14.6948H13.3359V27.9927Z" fill="#FAFAFF"/>
<path d="M28.0187 27.9927H14.7209V14.6948H28.0187V27.9927Z" fill="#FAFAFF"/>
</g>
<defs>
<clipPath id="clip0_1_6814">
<rect width="131.086" height="28" fill="white" transform="translate(0.0383301)"/>
</clipPath>
</defs>
</svg>
