<svg width="149" height="22" viewBox="0 0 149 22" fill="none" xmlns="http://www.w3.org/2000/svg">
<path fill-rule="evenodd" clip-rule="evenodd" d="M0.124512 21.6087V0.668114H5.63169L13.5411 11.4386C13.6985 11.6527 13.9438 12.0976 14.293 12.762C14.6407 13.4245 15.0206 14.212 15.4406 15.1296C15.3281 14.2608 15.2444 13.4885 15.1915 12.8107C15.1386 12.1374 15.1133 11.5364 15.1133 11.0092V0.668114H20.5914V21.6087H15.1133L7.20389 10.7943C7.04368 10.5749 6.78628 10.1355 6.4375 9.47123C6.08945 8.809 5.71474 8.03086 5.30472 7.13232C5.41684 8.01114 5.5002 8.78823 5.55349 9.46638C5.60642 10.1393 5.63169 10.742 5.63169 11.268V21.6087H0.124512ZM29.4319 13.7823H35.11L32.9766 6.87348C32.9123 6.66417 32.8223 6.32542 32.7078 5.85802C32.5943 5.39437 32.4441 4.79372 32.2635 4.05643C32.1417 4.57402 32.0165 5.06221 31.8975 5.53105C31.7785 5.99846 31.6656 6.44792 31.5362 6.87348L29.4319 13.7823ZM21.4346 21.6087L28.6603 0.668114H35.8131L43.0488 21.6087H37.3707L36.3113 17.8592H28.2016L27.1127 21.6087H21.4346ZM45.1213 14.6763C45.9707 15.6382 46.8105 16.3606 47.6357 16.8343C48.4609 17.3128 49.2812 17.5519 50.1012 17.5519C50.8631 17.5519 51.4928 17.3471 51.981 16.9367C52.474 16.5267 52.7183 16.0091 52.7183 15.3794C52.7183 14.6812 52.5083 14.1442 52.0834 13.7681C51.6589 13.3924 50.697 13.0017 49.203 12.6014C47.1523 12.0495 45.7022 11.3271 44.8528 10.4435C44.0031 9.55462 43.5785 8.33911 43.5785 6.79601C43.5785 4.79442 44.2474 3.1589 45.5902 1.89428C46.9278 0.62971 48.6661 0 50.7995 0C51.9568 0 53.0501 0.156018 54.0853 0.463607C55.1206 0.77604 56.0969 1.24488 57.0245 1.87459L55.2375 5.98082C54.5881 5.42897 53.9241 5.00927 53.2408 4.7259C52.5571 4.44773 51.8834 4.30623 51.2195 4.30623C50.531 4.30623 49.9742 4.4723 49.5449 4.79926C49.1151 5.12623 48.9003 5.55112 48.9003 6.06387C48.9003 6.59115 49.0906 7.01086 49.4667 7.32364C49.8424 7.64092 50.57 7.93882 51.644 8.22668L51.9028 8.30004C54.2317 8.92491 55.76 9.61825 56.4924 10.3701C56.9903 10.8877 57.3664 11.5029 57.6252 12.2253C57.884 12.9429 58.0106 13.7439 58.0106 14.6179C58.0106 16.8392 57.2834 18.6262 55.8236 19.9739C54.3635 21.326 52.4204 22 49.9891 22C48.5294 22 47.2011 21.7509 46.005 21.2578C44.8089 20.7596 43.6567 19.9836 42.5482 18.9241L45.1213 14.6763ZM60.9537 14.6763C61.8031 15.6382 62.6428 16.3606 63.468 16.8343C64.2932 17.3128 65.1135 17.5519 65.9336 17.5519C66.6954 17.5519 67.3251 17.3471 67.8134 16.9367C68.3064 16.5267 68.5506 16.0091 68.5506 15.3794C68.5506 14.6812 68.3406 14.1442 67.9157 13.7681C67.4912 13.3924 66.5294 13.0017 65.0354 12.6014C62.9846 12.0495 61.5346 11.3271 60.6852 10.4435C59.8354 9.55462 59.4109 8.33911 59.4109 6.79601C59.4109 4.79442 60.0797 3.1589 61.4225 1.89428C62.7601 0.62971 64.4984 0 66.6317 0C67.7891 0 68.8825 0.156018 69.9177 0.463607C70.9529 0.77604 71.9293 1.24488 72.8569 1.87459L71.0698 5.98082C70.4204 5.42897 69.7564 5.00927 69.0731 4.7259C68.3894 4.44773 67.7158 4.30623 67.0518 4.30623C66.3633 4.30623 65.8066 4.4723 65.3772 4.79926C64.9475 5.12623 64.7326 5.55112 64.7326 6.06387C64.7326 6.59115 64.9229 7.01086 65.299 7.32364C65.6748 7.64092 66.4024 7.93882 67.4763 8.22668L67.7351 8.30004C70.064 8.92491 71.5923 9.61825 72.3248 10.3701C72.8226 10.8877 73.1987 11.5029 73.4575 12.2253C73.7163 12.9429 73.843 13.7439 73.843 14.6179C73.843 16.8392 73.1157 18.6262 71.6559 19.9739C70.1959 21.326 68.2527 22 65.8214 22C64.3617 22 63.0334 21.7509 61.8373 21.2578C60.6412 20.7596 59.4891 19.9836 58.3805 18.9241L60.9537 14.6763ZM91.0326 1.31337V7.55303C90.2517 6.6839 89.4705 6.04899 88.6941 5.64382C87.9176 5.23869 87.0828 5.03349 86.1991 5.03349C84.5587 5.03349 83.2308 5.59503 82.2153 6.71331C81.1995 7.83605 80.6919 9.29579 80.6919 11.0974C80.6919 12.7772 81.2095 14.1684 82.2444 15.277C83.2796 16.3852 84.5978 16.9367 86.1991 16.9367C87.0828 16.9367 87.9176 16.7319 88.6941 16.3264C89.4705 15.9212 90.2517 15.2818 91.0326 14.403V20.6572C90.1247 21.0918 89.2262 21.4239 88.328 21.6436C87.4343 21.8633 86.5264 21.9706 85.6133 21.9706C84.466 21.9706 83.4114 21.8339 82.4447 21.5606C81.478 21.2921 80.5843 20.8769 79.774 20.3254C78.2115 19.2757 77.0202 17.9574 76.2002 16.3655C75.3799 14.7691 74.9698 12.9772 74.9698 10.9853C74.9698 9.38368 75.2283 7.92879 75.7508 6.61539C76.2684 5.30198 77.0545 4.11558 78.1042 3.04648C79.0955 2.02613 80.2134 1.26458 81.4583 0.756673C82.6987 0.253959 84.0851 0 85.6133 0C86.5264 0 87.4343 0.107227 88.328 0.326961C89.2262 0.546656 90.1247 0.878822 91.0326 1.31337ZM114.564 11.0147C114.564 12.5232 114.286 13.9342 113.734 15.2476C113.183 16.5658 112.377 17.7426 111.318 18.7822C110.248 19.8126 109.028 20.6036 107.656 21.1651C106.284 21.7215 104.858 22 103.379 22C101.88 22 100.45 21.7215 99.0825 21.1651C97.7107 20.6036 96.5094 19.8126 95.4693 18.7822C94.3905 17.7426 93.575 16.561 93.0138 15.2331C92.4571 13.9096 92.1789 12.5035 92.1789 11.0147C92.1789 9.51552 92.4571 8.10938 93.0138 6.78633C93.575 5.46808 94.3905 4.28651 95.4693 3.24679C96.5094 2.2164 97.7107 1.42548 99.0825 0.863941C100.45 0.307592 101.88 0.02907 103.379 0.02907C104.868 0.02907 106.299 0.307592 107.675 0.863941C109.057 1.42548 110.268 2.2164 111.318 3.24679C112.367 4.27682 113.168 5.45354 113.729 6.78148C114.286 8.10453 114.564 9.51552 114.564 11.0147ZM103.379 17.1665C104.961 17.1665 106.269 16.5852 107.304 15.4233C108.34 14.2563 108.857 12.7869 108.857 11.0147C108.857 9.26188 108.334 7.79694 107.285 6.62022C106.235 5.4487 104.932 4.86259 103.379 4.86259C101.797 4.86259 100.489 5.4487 99.4534 6.61539C98.4185 7.78242 97.9009 9.25188 97.9009 11.0147C97.9009 12.8063 98.4085 14.2809 99.4292 15.433C100.45 16.5904 101.768 17.1665 103.379 17.1665ZM140.972 21.4433H135.635L134.405 12.3914C134.322 11.7516 134.244 11.0389 134.171 10.2577C134.097 9.47677 134.034 8.62216 133.975 7.6994C133.843 8.58306 133.58 9.69127 133.189 11.0147C133.107 11.2929 133.043 11.498 133.004 11.6299L130.157 21.4433H126.354L123.508 11.6299C123.468 11.498 123.41 11.2929 123.337 11.0147C122.936 9.69127 122.673 8.58791 122.551 7.71393C122.492 8.50486 122.424 9.2861 122.351 10.0625C122.272 10.8438 122.18 11.615 122.077 12.3914L120.847 21.4433H115.54L118.772 0.502718H124.421L127.584 11.3026C127.604 11.3759 127.643 11.5029 127.697 11.6738C127.994 12.6353 128.18 13.4605 128.258 14.1491C128.292 13.7778 128.366 13.3629 128.468 12.909C128.575 12.4596 128.717 11.9129 128.898 11.2732L132.091 0.502718H137.754L140.972 21.4433ZM143.445 2.64754V4.04984H144.075C144.43 4.04984 144.693 3.99482 144.858 3.88514C145.023 3.77512 145.103 3.60317 145.103 3.36894C145.103 3.1198 145.019 2.93679 144.847 2.82328C144.675 2.70601 144.4 2.64754 144.031 2.64754H143.445ZM142.489 2.0469H144.203C144.822 2.0469 145.29 2.14928 145.609 2.35448C145.927 2.55585 146.085 2.85615 146.085 3.25543C146.085 3.581 146.001 3.84848 145.828 4.06092C145.656 4.27682 145.411 4.41591 145.092 4.48579L146.085 6.49602H145.019L144.137 4.6394H143.445V6.49602H142.489V2.0469ZM144.111 0.973965C143.65 0.973965 143.221 1.05457 142.826 1.21582C142.43 1.38049 142.075 1.61855 141.757 1.93723C141.427 2.27039 141.174 2.64754 140.999 3.06135C140.823 3.47133 140.735 3.90347 140.735 4.34635C140.735 4.79337 140.819 5.21792 140.988 5.62445C141.152 6.02718 141.398 6.38979 141.713 6.71192C142.035 7.03783 142.397 7.28695 142.804 7.45894C143.21 7.63469 143.628 7.72258 144.056 7.72258C144.518 7.72258 144.957 7.63848 145.374 7.46998C145.788 7.30532 146.162 7.05616 146.495 6.73404C146.81 6.42645 147.055 6.07113 147.227 5.67219C147.4 5.26912 147.484 4.84805 147.484 4.40138C147.484 3.92909 147.403 3.48586 147.242 3.07969C147.077 2.66932 146.839 2.30325 146.521 1.98113C146.191 1.65141 145.821 1.40231 145.411 1.23036C145.005 1.05837 144.569 0.973965 144.111 0.973965ZM144.104 0.377118C144.653 0.377118 145.166 0.476093 145.653 0.677457C146.136 0.878822 146.568 1.17187 146.949 1.56351C147.315 1.93338 147.597 2.35828 147.791 2.83057C147.985 3.30666 148.08 3.80833 148.08 4.3429C148.08 4.892 147.981 5.40476 147.784 5.88429C147.583 6.36418 147.297 6.78528 146.916 7.15514C146.528 7.53226 146.096 7.81772 145.612 8.01908C145.129 8.2208 144.627 8.31942 144.104 8.31942C143.577 8.31942 143.071 8.217 142.588 8.01184C142.104 7.80698 141.672 7.51013 141.292 7.12228C140.918 6.74478 140.629 6.31644 140.435 5.84035C140.237 5.3646 140.138 4.86638 140.138 4.3429C140.138 3.81561 140.241 3.31011 140.446 2.81949C140.651 2.32886 140.947 1.88944 141.336 1.50504C141.706 1.13138 142.127 0.849405 142.592 0.662922C143.06 0.472254 143.566 0.377118 144.104 0.377118Z" fill="#FAFAFF"/>
</svg>
