<svg width="135" height="24" viewBox="0 0 135 24" fill="none" xmlns="http://www.w3.org/2000/svg">
<path d="M2.43585 1.0542H7.01231V5.13645H10.3101V8.38878H7.01231V15.0953C7.01231 16.5084 7.46098 16.7776 8.98647 16.7776H10.3101V20.0972H7.39368C3.69214 20.0972 2.43585 19.3794 2.43585 15.9028V8.38878H0.0803223V5.13645H2.43585V1.0542ZM25.8341 15.4318C24.4881 18.9757 21.3474 20.5009 18.3637 20.5009C13.4956 20.5009 10.153 17.5626 10.153 12.5607C10.153 7.76075 13.7873 4.73271 18.1843 4.73271C23.1645 4.73271 26.2155 8.50093 25.9014 13.8168H14.7968C14.9314 15.9477 16.5915 16.9121 18.2516 16.9121C20.0014 16.9121 21.1006 16.2841 21.6166 15.4093L25.8341 15.4318ZM14.8641 11.0355H21.3474C21.2577 9.1514 19.9565 8.20935 18.2067 8.20935C16.5466 8.20935 15.1108 9.06168 14.8641 11.0355ZM41.6498 10.6318H37.3874C36.9836 8.88224 35.8844 8.27663 34.5384 8.27663C32.9007 8.27663 31.2855 9.39813 31.2855 12.6056C31.2855 15.8579 32.9007 16.9346 34.5384 16.9346C36.2209 16.9346 37.2753 16.0598 37.6118 14.6243H41.8741C40.8422 19.0654 37.2528 20.4785 34.2467 20.4785C29.3113 20.4785 26.5969 17.3159 26.5969 12.5383C26.5969 7.76075 29.7151 4.71028 34.2467 4.71028C37.3426 4.71028 40.7525 6.12336 41.6498 10.6318ZM46.9666 7.13271C47.6172 6.01121 49.2548 4.82243 51.6103 4.82243C55.4465 4.82243 56.6579 7.08785 56.6579 11.1477V20.1421H52.0814V12.314C52.0814 10.1832 52.0141 8.43365 49.7932 8.43365C47.8191 8.43365 46.989 9.71215 46.989 12.5159V20.1869H42.4126V0H46.989L46.9666 7.13271ZM67.2017 9.55514C66.8876 8.43365 65.7211 8.11962 64.2853 8.11962C62.6925 8.11962 61.9074 8.50093 61.9074 9.24112C61.9074 9.93644 62.4458 10.3402 63.7469 10.5869L66.5511 11.0804C70.1405 11.7308 71.8679 12.8075 71.8679 15.4318C71.8679 18.7963 68.7721 20.5009 64.6218 20.5009C60.6287 20.5009 57.802 18.8187 57.286 15.2748H61.5484C61.9522 16.7103 63.1188 17.1589 64.6891 17.1589C66.3268 17.1589 67.4709 16.7103 67.4709 15.8131C67.4709 15.1626 66.8876 14.714 65.1154 14.4224L62.4458 13.9738C59.5518 13.5028 57.5777 12.0449 57.5777 9.39813C57.5777 6.41495 60.7184 4.77757 64.4199 4.77757C67.8298 4.77757 70.9481 6.14579 71.509 9.57757L67.2017 9.55514ZM74.2234 1.0542H78.7999V5.13645H82.0976V8.38878H78.7999V15.0953C78.7999 16.5084 79.2486 16.7776 80.774 16.7776H82.0752V20.0972H79.1813C75.4797 20.0972 74.2234 19.3794 74.2234 15.9028V8.38878H71.8679V5.13645H74.2234V1.0542ZM92.5517 10.1832C92.5517 8.38878 91.6992 7.8056 90.0167 7.8056C88.5361 7.8056 87.549 8.56822 87.3471 10.0037H83.0623C83.2866 7.17757 85.9562 4.68785 90.3981 4.68785C94.7277 4.68785 97.173 6.43738 97.0833 10.9907L97.016 14.243V15.8131C97.016 17.4505 97.1281 19.2224 97.3525 20.1421H92.8433L92.776 18.3252C91.6543 19.9178 89.8821 20.5009 87.7285 20.5009C84.8794 20.5009 82.5463 18.8411 82.5463 16.1047C82.5463 12.4262 86.6965 11.2374 92.5068 10.7888L92.5517 10.1832ZM92.6863 13.4804C89.4783 13.7944 87.3471 14.1084 87.3471 15.7682C87.3471 16.7327 88.2669 17.3832 89.4559 17.3832C91.2954 17.3832 92.6863 16.5981 92.6863 13.8392V13.4804ZM107.582 9.55514C107.178 9.48785 106.73 9.44299 106.326 9.46542C104.105 9.46542 102.961 10.2729 102.961 12.6056V20.1196H98.362V5.13645H102.781V7.98505C103.477 6.19065 104.733 5.13645 106.864 5.04673H107.201C107.335 5.04673 107.448 5.04673 107.582 5.06916V9.55514ZM117.722 9.55514C117.408 8.43365 116.242 8.11962 114.806 8.11962C113.213 8.11962 112.428 8.50093 112.428 9.24112C112.428 9.93644 112.966 10.3402 114.267 10.5869L117.049 11.0804C120.639 11.7308 122.366 12.8075 122.366 15.4318C122.366 18.7963 119.27 20.5009 115.12 20.5009C111.149 20.5009 108.3 18.8187 107.784 15.2748H112.046C112.45 16.7103 113.617 17.1589 115.187 17.1589C116.825 17.1589 117.969 16.7103 117.969 15.8131C117.969 15.1626 117.386 14.714 115.613 14.4224L112.944 13.9738C110.05 13.5028 108.098 12.0449 108.098 9.39813C108.098 6.41495 111.239 4.77757 114.94 4.77757C118.35 4.77757 121.469 6.14579 122.029 9.57757L117.722 9.55514Z" fill="#FAFAFF"/>
<path d="M122.276 24V20.1421H134.66V24H122.276Z" fill="#FAFAFF"/>
</svg>
